<?xml version="1.0" encoding="utf-8"?>
<!-- Generator: Adobe Illustrator 22.1.0, SVG Export Plug-In . SVG Version: 6.00 Build 0)  -->
<svg version="1.1" id="Layer_1" xmlns="http://www.w3.org/2000/svg" xmlns:xlink="http://www.w3.org/1999/xlink" x="0px" y="0px"
	 viewBox="0 0 300 300" style="enable-background:new 0 0 300 300;" xml:space="preserve">
<style type="text/css">
	.st0{fill:#744331;}
	.st1{fill:#60BD70;}
	.st2{fill:#E9283A;}
	.st3{fill:#FFFFFF;}
</style>
<g>
	<g>
		<path class="st0" d="M149.3,293.2c77.1,0,139.5-46.3,139.5-103.4H9.7C9.7,246.9,72.2,293.2,149.3,293.2z"/>
	</g>
	<path class="st1" d="M143.7,21C143.7,21-3.1,88.5,9,180.5l140.3-0.4C149.3,180.1,108.6,126.1,143.7,21z"/>
	<path class="st1" d="M153.7,45.6c0,0,132.8,57,121.8,134.8l-126.8-0.3C148.7,180.1,185.5,134.4,153.7,45.6z"/>
	<rect x="144.7" y="21.2" class="st0" width="8" height="198.4"/>
	<g>
		<polygon class="st2" points="185.1,32.3 202.9,22.8 205.8,21.2 152.7,21.2 152.7,45.6 206.5,45.6 202.2,43 		"/>
	</g>
	<circle class="st3" cx="150.3" cy="220.2" r="11.1"/>
	<circle class="st3" cx="77" cy="220.2" r="11.1"/>
	<circle class="st3" cx="223.6" cy="220.2" r="11.1"/>
</g>
</svg>
