<?xml version="1.0" encoding="utf-8"?>
<!-- Generator: Adobe Illustrator 22.1.0, SVG Export Plug-In . SVG Version: 6.00 Build 0)  -->
<svg version="1.1" id="Layer_2_1_" xmlns="http://www.w3.org/2000/svg" xmlns:xlink="http://www.w3.org/1999/xlink" x="0px" y="0px"
	 viewBox="0 0 1024 768" style="enable-background:new 0 0 1024 768;" xml:space="preserve">
<style type="text/css">
	.st0{fill:#FFFFFF;}
	.st1{fill:#135589;}
</style>
<g>
	<image style="overflow:visible;" width="1092" height="461" xlink:href="A994C55B.png"  transform="matrix(1 0 0 1 -34 167)">
	</image>
</g>
<path class="st0" d="M84.8,585.9h821.6c0,0,53.7,5.3,50.6-48.6c0,0,54.6,0.4,50.6-44.8s-48-38.7-48-38.7s38.2-30.8-24.9-99.5
	s-134.1-11.4-134.1-11.4s-30.2-39.1-71.9-15.9c0,0,29.3-125.3-137.7-117.7S454.2,314.8,454.2,314.8s-34.6-32.3-90.6,12.9
	c0,0-38.2,33.8-32,50.9c0,0-44.4-30.8-64.8,22c0,0-33.3-65.7-117.2-21.3s-45.3,72.1-45.3,72.1s-81.3-31.1-88.8,60
	C15.6,511.5,13.3,565.4,84.8,585.9z"/>
<g>
	<path class="st1" d="M61,505.5c0-4.9,0.9-9.8,2.6-14.7c1.8-4.9,4.4-9.2,7.8-13.1c3.4-3.9,7.6-7,12.5-9.4c4.9-2.4,10.5-3.6,16.7-3.6
		c7.4,0,13.8,1.6,19.1,4.9c5.3,3.3,9.3,7.6,12,12.9l-10.1,6.8c-1.1-2.5-2.5-4.5-4.1-6.2c-1.6-1.7-3.4-3-5.3-4c-1.9-1-3.9-1.7-6-2.1
		c-2.1-0.4-4.1-0.6-6-0.6c-4.3,0-8,0.9-11.3,2.6c-3.2,1.7-5.9,4-8.1,6.8c-2.2,2.8-3.8,6-4.9,9.5c-1.1,3.5-1.7,7.1-1.7,10.6
		c0,4,0.7,7.8,2,11.4c1.3,3.6,3.1,6.8,5.5,9.5c2.3,2.8,5.1,5,8.3,6.6c3.2,1.6,6.7,2.5,10.6,2.5c2,0,4-0.2,6.2-0.7
		c2.1-0.5,4.1-1.3,6.1-2.4c2-1.1,3.8-2.5,5.4-4.2c1.6-1.7,3-3.7,4.1-6.1l10.7,6.1c-1.3,3.1-3.1,5.8-5.5,8.1c-2.4,2.3-5.1,4.3-8,5.9
		c-3,1.6-6.2,2.8-9.5,3.7c-3.3,0.8-6.6,1.3-9.8,1.3c-5.8,0-11-1.2-15.8-3.7c-4.8-2.5-8.9-5.7-12.3-9.6c-3.5-3.9-6.1-8.4-8.1-13.5
		C62,515.9,61,510.8,61,505.5z"/>
	<path class="st1" d="M193.2,484.5c-0.8-0.8-1.9-1.7-3.3-2.7c-1.5-1-3.2-1.9-5.1-2.7c-2-0.8-4.1-1.5-6.4-2.1
		c-2.3-0.5-4.7-0.8-7.2-0.8c-5.4,0-9.4,1-12,3c-2.6,2-3.9,4.8-3.9,8.3c0,2,0.4,3.6,1.2,4.9c0.8,1.3,2.1,2.4,3.7,3.3
		c1.7,1,3.8,1.8,6.3,2.5c2.5,0.7,5.5,1.5,8.9,2.4c4.1,1,7.9,2.1,11.2,3.3c3.3,1.2,6.2,2.7,8.5,4.5c2.3,1.8,4.1,3.9,5.3,6.5
		c1.3,2.6,1.9,5.7,1.9,9.4c0,4.1-0.8,7.7-2.4,10.7c-1.6,3-3.7,5.4-6.4,7.3c-2.7,1.9-5.9,3.3-9.5,4.1c-3.6,0.9-7.5,1.3-11.6,1.3
		c-6.2,0-12.2-0.9-18-2.8c-5.8-1.9-11-4.6-15.7-8.2l5.9-11c1,1,2.4,2.1,4.3,3.3c1.9,1.2,4.1,2.4,6.6,3.4c2.5,1,5.2,1.9,8.1,2.6
		c2.9,0.7,5.9,1.1,9.1,1.1c5.1,0,9-0.9,11.7-2.6c2.8-1.8,4.1-4.4,4.1-7.8c0-2.1-0.5-3.8-1.6-5.2s-2.5-2.6-4.4-3.6
		c-1.9-1-4.3-2-7-2.8c-2.8-0.8-5.9-1.7-9.4-2.6c-4.1-1.1-7.6-2.2-10.6-3.4c-3-1.2-5.5-2.6-7.5-4.3c-2-1.7-3.5-3.7-4.5-5.9
		c-1-2.3-1.6-5-1.6-8.2c0-4,0.8-7.5,2.3-10.6c1.5-3.1,3.6-5.7,6.3-7.8c2.6-2.1,5.8-3.7,9.4-4.8c3.6-1.1,7.5-1.6,11.7-1.6
		c5.5,0,10.6,0.9,15.3,2.6c4.7,1.8,8.8,3.9,12.3,6.6L193.2,484.5z"/>
	<path class="st1" d="M263.4,484.5c-0.8-0.8-1.9-1.7-3.3-2.7c-1.5-1-3.2-1.9-5.1-2.7c-2-0.8-4.1-1.5-6.4-2.1
		c-2.3-0.5-4.7-0.8-7.2-0.8c-5.4,0-9.4,1-12,3c-2.6,2-3.9,4.8-3.9,8.3c0,2,0.4,3.6,1.2,4.9c0.8,1.3,2.1,2.4,3.7,3.3
		c1.7,1,3.8,1.8,6.3,2.5c2.5,0.7,5.5,1.5,8.9,2.4c4.1,1,7.9,2.1,11.2,3.3c3.3,1.2,6.2,2.7,8.5,4.5c2.3,1.8,4.1,3.9,5.3,6.5
		c1.3,2.6,1.9,5.7,1.9,9.4c0,4.1-0.8,7.7-2.4,10.7c-1.6,3-3.7,5.4-6.4,7.3c-2.7,1.9-5.9,3.3-9.5,4.1c-3.6,0.9-7.5,1.3-11.6,1.3
		c-6.2,0-12.2-0.9-18-2.8c-5.8-1.9-11-4.6-15.7-8.2l5.9-11c1,1,2.4,2.1,4.3,3.3c1.9,1.2,4.1,2.4,6.6,3.4c2.5,1,5.2,1.9,8.1,2.6
		c2.9,0.7,5.9,1.1,9.1,1.1c5.1,0,9-0.9,11.7-2.6c2.8-1.8,4.1-4.4,4.1-7.8c0-2.1-0.5-3.8-1.6-5.2s-2.5-2.6-4.4-3.6
		c-1.9-1-4.3-2-7-2.8c-2.8-0.8-5.9-1.7-9.4-2.6c-4.1-1.1-7.6-2.2-10.6-3.4c-3-1.2-5.5-2.6-7.5-4.3c-2-1.7-3.5-3.7-4.5-5.9
		c-1-2.3-1.6-5-1.6-8.2c0-4,0.8-7.5,2.3-10.6c1.5-3.1,3.6-5.7,6.3-7.8c2.6-2.1,5.8-3.7,9.4-4.8c3.6-1.1,7.5-1.6,11.7-1.6
		c5.5,0,10.6,0.9,15.3,2.6c4.7,1.8,8.8,3.9,12.3,6.6L263.4,484.5z"/>
	<path class="st1" d="M308.2,537.1l49.6-60.4h-48.4v-11.4h63.5v9.9l-48.4,60.4h48.5v11.4h-64.7V537.1z"/>
	<path class="st1" d="M409.7,548.1c-4.7,0-8.9-0.8-12.8-2.5c-3.8-1.6-7.1-3.9-9.8-6.7c-2.7-2.8-4.8-6.1-6.3-9.9
		c-1.5-3.8-2.2-7.7-2.2-12c0-4.2,0.7-8.2,2.2-12c1.5-3.8,3.6-7.1,6.3-10c2.7-2.9,6-5.1,9.8-6.8c3.8-1.6,8.1-2.5,12.9-2.5
		c4.7,0,8.9,0.8,12.7,2.5c3.8,1.7,7,3.9,9.7,6.7c2.7,2.8,4.7,6.1,6.2,9.8c1.4,3.7,2.1,7.6,2.1,11.7c0,0.9,0,1.8-0.1,2.6
		c-0.1,0.8-0.2,1.5-0.2,2H392c0.2,2.7,0.9,5.1,1.9,7.2c1,2.1,2.4,4,4,5.6c1.6,1.6,3.5,2.8,5.6,3.6c2.1,0.8,4.3,1.3,6.6,1.3
		c1.7,0,3.4-0.2,5-0.6c1.6-0.4,3.2-1,4.5-1.8c1.4-0.8,2.6-1.8,3.7-2.9c1.1-1.1,1.9-2.4,2.5-3.8l10.8,3.1c-2.1,4.5-5.5,8.2-10.3,11.1
		C421.6,546.7,416.1,548.1,409.7,548.1z M428,512.3c-0.2-2.5-0.9-4.9-1.9-7c-1-2.1-2.4-4-4-5.5c-1.6-1.5-3.5-2.7-5.6-3.5
		c-2.1-0.8-4.4-1.3-6.8-1.3c-2.4,0-4.6,0.4-6.7,1.3c-2.1,0.8-4,2-5.6,3.5s-2.9,3.3-3.9,5.5c-1,2.1-1.6,4.5-1.8,7H428z"/>
	<path class="st1" d="M504.8,546.9h-12.7v-33.7c0-5.7-0.9-9.8-2.7-12.4c-1.8-2.6-4.5-3.9-8-3.9c-1.8,0-3.7,0.3-5.5,1
		s-3.6,1.7-5.2,2.9c-1.6,1.3-3,2.8-4.3,4.5c-1.3,1.7-2.2,3.6-2.9,5.7v35.8h-12.7v-60.1h11.5v12.1c2.3-4.1,5.6-7.3,10-9.6
		c4.4-2.3,9.2-3.5,14.5-3.5c3.6,0,6.6,0.7,8.9,2c2.3,1.3,4.1,3.1,5.5,5.3c1.3,2.3,2.3,4.9,2.8,7.8c0.5,3,0.8,6.1,0.8,9.4V546.9z"/>
	<path class="st1" d="M606.7,536.8c-6.9,7.1-14.8,10.7-23.8,10.7c-5.4,0-10.5-1.1-15.2-3.4c-4.7-2.3-8.7-5.3-12.2-9.1
		c-3.4-3.8-6.2-8.3-8.1-13.3c-2-5.1-2.9-10.4-2.9-15.9c0-5.5,1-10.8,2.9-15.8c2-5,4.7-9.4,8.1-13.1c3.5-3.8,7.6-6.7,12.3-8.9
		c4.8-2.2,9.9-3.3,15.5-3.3c7.8,0,14.4,1.6,19.7,4.9c5.3,3.3,9.3,7.6,12,12.9l-9.9,7.1c-2.2-4.4-5.3-7.8-9.2-10
		c-3.9-2.2-8.2-3.3-12.9-3.3c-3.8,0-7.3,0.8-10.5,2.5c-3.1,1.6-5.8,3.8-8,6.6c-2.2,2.7-3.9,5.9-5.1,9.5c-1.2,3.6-1.8,7.4-1.8,11.3
		c0,4.1,0.7,8,2,11.6c1.3,3.6,3.2,6.7,5.5,9.4c2.3,2.7,5.1,4.8,8.3,6.4c3.2,1.6,6.7,2.4,10.5,2.4c4.1,0,8.1-1,11.9-2.9
		c3.8-1.9,7.4-4.9,10.9-9.1v-8.7h-17.1v-9.5h27.9v41.3h-10.8V536.8z"/>
	<path class="st1" d="M646.6,548.1c-2.9,0-5.6-0.5-8.1-1.4c-2.5-1-4.6-2.3-6.4-4c-1.8-1.7-3.2-3.7-4.3-6c-1-2.3-1.6-4.8-1.6-7.5
		c0-2.8,0.6-5.4,1.8-7.7c1.2-2.3,3-4.3,5.2-6c2.3-1.7,4.9-3,8-3.9c3.1-0.9,6.5-1.4,10.3-1.4c2.8,0,5.6,0.2,8.4,0.7
		c2.8,0.5,5.3,1.2,7.5,2v-4.1c0-4.4-1.3-7.9-3.8-10.4c-2.5-2.5-6.2-3.7-10.9-3.7c-3.2,0-6.4,0.6-9.5,1.8c-3.1,1.2-6.3,2.9-9.6,5.1
		l-3.9-8.1c7.7-5.2,15.8-7.8,24.1-7.8c8.3,0,14.7,2.1,19.3,6.3c4.6,4.2,6.9,10.3,6.9,18.2V532c0,2.7,1.1,4.1,3.3,4.1v10.8
		c-1.2,0.2-2.3,0.4-3.2,0.5c-0.9,0.1-1.7,0.1-2.6,0.1c-2.5,0-4.4-0.6-5.7-1.8c-1.3-1.2-2.2-2.8-2.5-4.7l-0.3-3.8
		c-2.7,3.5-6,6.2-9.9,8.1C655.4,547.2,651.1,548.1,646.6,548.1z M650,538.8c3.1,0,6-0.6,8.7-1.7c2.7-1.1,4.8-2.7,6.4-4.7
		c1.6-1.4,2.4-2.8,2.4-4.4v-7.9c-2.1-0.8-4.4-1.5-6.8-2s-4.8-0.7-7.1-0.7c-4.5,0-8.2,1-11.1,2.9s-4.3,4.5-4.3,7.8
		c0,3,1.1,5.5,3.3,7.5C643.8,537.8,646.6,538.8,650,538.8z"/>
	<path class="st1" d="M729.3,497.7c-4.9,0.2-9.3,1.3-13.1,3.4c-3.8,2.1-6.5,5.1-8.1,9v36.8h-12.7v-60.1h11.7v13.5
		c2.1-4.1,4.8-7.5,8.1-9.9c3.3-2.5,6.9-3.9,10.8-4.1c0.8,0,1.4,0,1.9,0c0.5,0,0.9,0,1.3,0.1V497.7z"/>
	<path class="st1" d="M760,548.1c-4.1,0-7.8-0.8-11.3-2.5c-3.5-1.6-6.4-3.9-9-6.7c-2.5-2.8-4.5-6.2-5.9-9.9
		c-1.4-3.8-2.1-7.9-2.1-12.2c0-4.2,0.7-8.2,2-11.9c1.3-3.7,3.2-7,5.6-9.8c2.4-2.8,5.3-5.1,8.5-6.7c3.3-1.6,6.8-2.5,10.8-2.5
		c4.8,0,9.1,1.2,12.8,3.5c3.7,2.3,6.6,5.3,8.6,8.9V463h12.7v69c0,1.5,0.2,2.5,0.7,3.1c0.5,0.6,1.4,1,2.7,1v10.8
		c-1.3,0.2-2.4,0.4-3.2,0.5c-0.8,0.1-1.5,0.1-2,0.1c-2.5,0-4.6-0.7-6.2-2c-1.6-1.3-2.5-3-2.6-5.1l-0.2-4.5c-2.2,3.8-5.3,6.7-9.1,8.9
		C768.9,547,764.7,548.1,760,548.1z M763.1,537.3c1.8,0,3.7-0.3,5.5-0.9c1.8-0.6,3.5-1.5,5.1-2.5c1.5-1.1,2.9-2.3,4-3.8
		c1.1-1.5,1.9-3,2.4-4.7v-15.8c-0.7-1.9-1.7-3.7-2.9-5.3c-1.3-1.6-2.7-3-4.3-4.1c-1.6-1.2-3.3-2-5.1-2.6c-1.8-0.6-3.6-0.9-5.5-0.9
		c-2.5,0-4.8,0.6-7,1.7c-2.1,1.1-3.9,2.7-5.5,4.6c-1.5,1.9-2.7,4.1-3.6,6.6c-0.9,2.5-1.3,5-1.3,7.6c0,2.8,0.5,5.4,1.4,7.8
		c1,2.5,2.3,4.6,4,6.4c1.7,1.8,3.6,3.3,5.8,4.4C758.2,536.8,760.6,537.3,763.1,537.3z"/>
	<path class="st1" d="M836,548.1c-4.7,0-8.9-0.8-12.8-2.5c-3.8-1.6-7.1-3.9-9.8-6.7c-2.7-2.8-4.8-6.1-6.3-9.9
		c-1.5-3.8-2.2-7.7-2.2-12c0-4.2,0.7-8.2,2.2-12c1.5-3.8,3.6-7.1,6.3-10c2.7-2.9,6-5.1,9.8-6.8c3.8-1.6,8.1-2.5,12.9-2.5
		c4.7,0,8.9,0.8,12.7,2.5c3.8,1.7,7,3.9,9.7,6.7c2.7,2.8,4.7,6.1,6.2,9.8c1.4,3.7,2.1,7.6,2.1,11.7c0,0.9,0,1.8-0.1,2.6
		c-0.1,0.8-0.2,1.5-0.2,2h-48.2c0.2,2.7,0.9,5.1,1.9,7.2c1,2.1,2.4,4,4,5.6c1.6,1.6,3.5,2.8,5.6,3.6c2.1,0.8,4.3,1.3,6.6,1.3
		c1.7,0,3.4-0.2,5-0.6c1.6-0.4,3.2-1,4.5-1.8c1.4-0.8,2.6-1.8,3.7-2.9c1.1-1.1,1.9-2.4,2.5-3.8l10.8,3.1c-2.1,4.5-5.5,8.2-10.3,11.1
		C847.9,546.7,842.4,548.1,836,548.1z M854.3,512.3c-0.2-2.5-0.9-4.9-1.9-7c-1-2.1-2.4-4-4-5.5c-1.6-1.5-3.5-2.7-5.6-3.5
		c-2.1-0.8-4.4-1.3-6.8-1.3c-2.4,0-4.6,0.4-6.7,1.3c-2.1,0.8-4,2-5.6,3.5s-2.9,3.3-3.9,5.5c-1,2.1-1.6,4.5-1.8,7H854.3z"/>
	<path class="st1" d="M931.1,546.9h-12.7v-33.7c0-5.7-0.9-9.8-2.7-12.4c-1.8-2.6-4.5-3.9-8-3.9c-1.8,0-3.7,0.3-5.5,1
		s-3.6,1.7-5.2,2.9c-1.6,1.3-3,2.8-4.3,4.5c-1.3,1.7-2.2,3.6-2.9,5.7v35.8h-12.7v-60.1h11.5v12.1c2.3-4.1,5.6-7.3,10-9.6
		c4.4-2.3,9.2-3.5,14.5-3.5c3.6,0,6.6,0.7,8.9,2c2.3,1.3,4.1,3.1,5.5,5.3c1.3,2.3,2.3,4.9,2.8,7.8c0.5,3,0.8,6.1,0.8,9.4V546.9z"/>
</g>
</svg>
