<?xml version="1.0" encoding="utf-8"?>
<!-- Generator: Adobe Illustrator 22.1.0, SVG Export Plug-In . SVG Version: 6.00 Build 0)  -->
<svg version="1.1" id="Layer_2" xmlns="http://www.w3.org/2000/svg" xmlns:xlink="http://www.w3.org/1999/xlink" x="0px" y="0px"
	 viewBox="0 0 1024 768" style="enable-background:new 0 0 1024 768;" xml:space="preserve">
<style type="text/css">
	.st0{fill:#B8E9EB;}
	.st1{fill:#F9D03F;}
	.st2{fill:#FCEE21;}
	.st3{fill:#FF6435;}
</style>
<path class="st0" d="M5.3,472c0,0-6.5-128.2,153.8-54.9c0,0,24.5-52.5,86.7-29.1c0,0,34.7-115.7,184.2-49.7c0,0-8.7-74.6,134.3-73.7
	s104,85.7,104,85.7s134.1-47.6,205.8,18c0,0,130-28.3,143,69.4S906.7,532,906.7,532s-40.1-10.3-39-22.3c1.1-12,7.6,47.1-101.8,58.3
	c-109.4,11.1-110.5-36-110.5-36s-89.9,102-179.8,0c0,0-57.4,66-158.2,0c0,0-72.6,87.4-166.8,0C150.5,532,24.8,581.7,5.3,472z"/>
<g id="Layer_2_1_">
	<g>
		<path class="st1" d="M473.3,320.4c0,0,40.6,73.9-39.8,60.1c0,0,63.7,57.2-15.9,72.4c0,0,78.2,25.3,16.7,74.6c0,0,76-8.7,38.4,59.4
			c0,0,65.2-46.3,63,39.1c0,0,50.7-65.9,71.7,18.1c0,0,21.7-83.3,72.4-13c0,0-7.2-92.7,62.3-42.7c0,0-44.2-76.8,40.6-63.7
			c0,0-65.9-40.6,11.6-71.7c0,0-83.3-16.7-12.3-73.1c0,0-77.5,19.6-41.3-59.4c0,0-74.6,42.7-58.6-39.8c0,0-39.1,76-74.6,0
			c0,0-23.1,86.9-70.9,0C536.3,280.6,547.2,376.2,473.3,320.4z"/>
		<circle class="st2" cx="607" cy="457.1" r="122.2"/>
	</g>
</g>
<g>
	<path class="st3" d="M50.8,453.5H36.6v36.7h-6.8v-36.7H15.6v-5.9h35.2V453.5z"/>
	<path class="st3" d="M83.8,490.1h-6.6v-17.6c0-2.9-0.5-5-1.5-6.4s-2.5-2.1-4.4-2.1c-0.9,0-1.8,0.2-2.8,0.5
		c-0.9,0.4-1.8,0.9-2.6,1.5c-0.8,0.7-1.6,1.4-2.2,2.3c-0.6,0.9-1.1,1.9-1.4,3v18.7h-6.6v-43.8h6.6v18.7c1.2-2.2,2.8-3.8,4.9-5
		c2.1-1.2,4.3-1.8,6.8-1.8c2,0,3.6,0.4,4.8,1c1.3,0.7,2.3,1.6,3,2.8c0.8,1.2,1.3,2.5,1.6,4c0.3,1.5,0.5,3.2,0.5,4.9V490.1z"/>
	<path class="st3" d="M105.7,490.7c-2.4,0-4.7-0.4-6.7-1.3c-2-0.9-3.7-2-5.1-3.5c-1.4-1.5-2.5-3.2-3.3-5.2c-0.8-2-1.2-4-1.2-6.2
		s0.4-4.3,1.2-6.3c0.8-2,1.9-3.7,3.3-5.2c1.4-1.5,3.1-2.7,5.1-3.5c2-0.9,4.2-1.3,6.7-1.3c2.4,0,4.6,0.4,6.6,1.3s3.7,2,5.1,3.5
		c1.4,1.5,2.5,3.2,3.2,5.1c0.7,1.9,1.1,4,1.1,6.1c0,0.5,0,0.9-0.1,1.4c0,0.4-0.1,0.8-0.1,1H96.4c0.1,1.4,0.5,2.7,1,3.8
		s1.2,2.1,2.1,2.9c0.9,0.8,1.8,1.5,2.9,1.9c1.1,0.4,2.3,0.7,3.4,0.7c0.9,0,1.7-0.1,2.6-0.3c0.9-0.2,1.7-0.5,2.4-1
		c0.7-0.4,1.4-0.9,1.9-1.5c0.6-0.6,1-1.3,1.3-2l5.6,1.6c-1.1,2.4-2.9,4.3-5.4,5.8C111.9,490,109,490.7,105.7,490.7z M115.2,472.1
		c-0.1-1.3-0.5-2.5-1-3.7s-1.2-2.1-2.1-2.9c-0.8-0.8-1.8-1.4-2.9-1.8c-1.1-0.4-2.3-0.7-3.5-0.7c-1.2,0-2.4,0.2-3.5,0.7
		c-1.1,0.4-2.1,1.1-2.9,1.8c-0.8,0.8-1.5,1.7-2,2.9c-0.5,1.1-0.8,2.3-1,3.7H115.2z"/>
	<path class="st3" d="M158.9,490.7c-2.4,0-4.6-0.6-6.5-1.7c-1.9-1.1-3.5-2.7-4.6-4.6v5.7H142v-43.8h6.6v18.4c1.2-2,2.8-3.6,4.6-4.7
		s4-1.7,6.6-1.7c2.1,0,4,0.5,5.7,1.3c1.7,0.9,3.2,2.1,4.4,3.6c1.2,1.5,2.2,3.2,2.8,5.2s1,4,1,6.2c0,2.2-0.4,4.3-1.1,6.3
		c-0.8,2-1.8,3.7-3.1,5.1c-1.3,1.5-2.9,2.6-4.7,3.5C162.9,490.3,161,490.7,158.9,490.7z M157.1,485.1c1.4,0,2.8-0.3,4-0.9
		c1.2-0.6,2.2-1.3,3.1-2.3c0.9-1,1.5-2.1,2-3.3s0.7-2.6,0.7-4c0-1.4-0.2-2.8-0.7-4c-0.5-1.3-1.1-2.4-1.9-3.4c-0.8-1-1.8-1.8-2.9-2.4
		c-1.1-0.6-2.4-0.9-3.8-0.9c-2,0-3.9,0.7-5.4,2c-1.6,1.3-2.8,2.9-3.6,4.8v8.3c0.2,0.9,0.7,1.8,1.3,2.5c0.6,0.7,1.3,1.4,2.1,2
		c0.8,0.6,1.7,1,2.6,1.3C155.4,485,156.3,485.1,157.1,485.1z"/>
	<path class="st3" d="M193.9,490.7c-2.4,0-4.7-0.4-6.7-1.3c-2-0.9-3.7-2-5.1-3.5c-1.4-1.5-2.5-3.2-3.3-5.2c-0.8-2-1.2-4-1.2-6.2
		s0.4-4.3,1.2-6.3c0.8-2,1.9-3.7,3.3-5.2c1.4-1.5,3.1-2.7,5.1-3.5c2-0.9,4.2-1.3,6.7-1.3c2.4,0,4.6,0.4,6.6,1.3s3.7,2,5.1,3.5
		c1.4,1.5,2.5,3.2,3.2,5.1c0.7,1.9,1.1,4,1.1,6.1c0,0.5,0,0.9-0.1,1.4c0,0.4-0.1,0.8-0.1,1h-25.1c0.1,1.4,0.5,2.7,1,3.8
		s1.2,2.1,2.1,2.9c0.9,0.8,1.8,1.5,2.9,1.9c1.1,0.4,2.3,0.7,3.4,0.7c0.9,0,1.7-0.1,2.6-0.3c0.9-0.2,1.7-0.5,2.4-1
		c0.7-0.4,1.4-0.9,1.9-1.5c0.6-0.6,1-1.3,1.3-2l5.6,1.6c-1.1,2.4-2.9,4.3-5.4,5.8C200.1,490,197.2,490.7,193.9,490.7z M203.4,472.1
		c-0.1-1.3-0.5-2.5-1-3.7s-1.2-2.1-2.1-2.9c-0.8-0.8-1.8-1.4-2.9-1.8c-1.1-0.4-2.3-0.7-3.5-0.7c-1.2,0-2.4,0.2-3.5,0.7
		c-1.1,0.4-2.1,1.1-2.9,1.8c-0.8,0.8-1.5,1.7-2,2.9c-0.5,1.1-0.8,2.3-1,3.7H203.4z"/>
	<path class="st3" d="M223.7,490.7c-1.5,0-2.9-0.3-4.2-0.8c-1.3-0.5-2.4-1.2-3.4-2.1c-0.9-0.9-1.7-1.9-2.2-3.1
		c-0.5-1.2-0.8-2.5-0.8-3.9c0-1.5,0.3-2.8,1-4c0.6-1.2,1.5-2.2,2.7-3.1c1.2-0.9,2.6-1.6,4.2-2c1.6-0.5,3.4-0.7,5.4-0.7
		c1.5,0,2.9,0.1,4.4,0.4c1.4,0.3,2.7,0.6,3.9,1v-2.2c0-2.3-0.7-4.1-2-5.4c-1.3-1.3-3.2-2-5.7-2c-1.7,0-3.3,0.3-5,0.9
		c-1.6,0.6-3.3,1.5-5,2.7l-2-4.2c4-2.7,8.2-4.1,12.6-4.1c4.3,0,7.7,1.1,10.1,3.3c2.4,2.2,3.6,5.4,3.6,9.5v11.3
		c0,1.4,0.6,2.1,1.7,2.2v5.6c-0.6,0.1-1.2,0.2-1.6,0.2c-0.5,0-0.9,0.1-1.4,0.1c-1.3,0-2.3-0.3-3-1c-0.7-0.6-1.1-1.5-1.3-2.5l-0.2-2
		c-1.4,1.8-3.1,3.3-5.2,4.2C228.2,490.3,226,490.7,223.7,490.7z M225.5,485.9c1.6,0,3.1-0.3,4.5-0.9c1.4-0.6,2.5-1.4,3.3-2.4
		c0.8-0.7,1.3-1.5,1.3-2.3v-4.1c-1.1-0.4-2.3-0.8-3.6-1c-1.3-0.2-2.5-0.4-3.7-0.4c-2.4,0-4.3,0.5-5.8,1.5c-1.5,1-2.3,2.4-2.3,4
		c0,1.6,0.6,2.9,1.7,3.9C222.2,485.4,223.7,485.9,225.5,485.9z"/>
	<path class="st3" d="M258.8,490.7c-3.3,0-5.8-1.1-7.4-3.2c-1.7-2.1-2.5-5.3-2.5-9.6v-19.2h6.6v17.9c0,5.6,2,8.5,6,8.5
		c1.9,0,3.7-0.6,5.3-1.7c1.7-1.2,3-2.8,3.9-5v-19.6h6.6v23.6c0,0.8,0.1,1.3,0.4,1.6c0.3,0.3,0.7,0.5,1.4,0.5v5.6
		c-0.7,0.1-1.2,0.2-1.7,0.2c-0.4,0-0.9,0.1-1.3,0.1c-1.2,0-2.2-0.3-3.1-1c-0.8-0.7-1.3-1.5-1.3-2.5l-0.1-3.1c-1.4,2.3-3.2,4-5.5,5.2
		C264,490.2,261.5,490.7,258.8,490.7z"/>
	<path class="st3" d="M303.2,488.5c-0.8,0.4-2,0.9-3.5,1.4c-1.5,0.5-3.1,0.8-4.7,0.8c-1,0-2-0.1-2.9-0.4c-0.9-0.3-1.7-0.7-2.4-1.3
		c-0.7-0.6-1.3-1.3-1.6-2.2c-0.4-0.9-0.6-2-0.6-3.3v-19.6h-4.1v-5.1h4.1v-10.3h6.6v10.3h6.8v5.1h-6.8v17.5c0.1,1.1,0.4,1.9,1,2.4
		c0.6,0.5,1.4,0.8,2.3,0.8c0.9,0,1.8-0.2,2.6-0.5c0.8-0.3,1.5-0.6,1.9-0.8L303.2,488.5z"/>
	<path class="st3" d="M308.8,497.5c0.6,0.1,1.2,0.2,1.8,0.3c0.6,0.1,1,0.1,1.4,0.1c0.5,0,1-0.1,1.3-0.3c0.4-0.2,0.8-0.6,1.2-1.2
		c0.4-0.6,0.8-1.3,1.2-2.4c0.4-1,0.9-2.3,1.5-3.9l-12.9-31.4h6.8l9.7,25.6l8.6-25.6h6.2l-14.2,38.6c-0.6,1.8-1.8,3.3-3.3,4.5
		c-1.6,1.2-3.6,1.8-6.1,1.8c-0.5,0-1,0-1.5-0.1c-0.5-0.1-1.1-0.2-1.7-0.4V497.5z"/>
	<path class="st3" d="M367.9,490.7c-2.5,0-4.7-0.4-6.7-1.3c-2-0.9-3.7-2.1-5.1-3.5c-1.4-1.5-2.5-3.2-3.2-5.2c-0.8-2-1.1-4-1.1-6.2
		s0.4-4.2,1.1-6.2c0.8-2,1.8-3.7,3.3-5.2c1.4-1.5,3.1-2.7,5.1-3.5s4.2-1.3,6.6-1.3c2.4,0,4.6,0.4,6.6,1.3s3.7,2.1,5.1,3.5
		c1.4,1.5,2.5,3.2,3.3,5.2c0.8,2,1.1,4,1.1,6.2s-0.4,4.2-1.1,6.2c-0.8,2-1.9,3.7-3.3,5.2c-1.4,1.5-3.1,2.7-5.1,3.5
		C372.5,490.3,370.3,490.7,367.9,490.7z M358.5,474.5c0,1.5,0.2,2.9,0.7,4.2c0.5,1.3,1.1,2.4,2,3.3c0.8,0.9,1.8,1.7,3,2.2
		c1.1,0.5,2.4,0.8,3.7,0.8s2.5-0.3,3.7-0.8s2.1-1.3,3-2.3c0.8-1,1.5-2.1,2-3.4c0.5-1.3,0.7-2.7,0.7-4.2c0-1.5-0.2-2.9-0.7-4.2
		c-0.5-1.3-1.1-2.4-2-3.4c-0.8-1-1.8-1.7-3-2.3s-2.4-0.8-3.7-0.8c-1.3,0-2.5,0.3-3.6,0.8c-1.1,0.6-2.1,1.3-3,2.3s-1.5,2.1-2,3.4
		C358.7,471.7,358.5,473.1,358.5,474.5z"/>
	<path class="st3" d="M391.2,490.1v-25.5H387v-5.1h4.2v-1.3c0-3.9,0.9-6.9,2.7-9.2c1.8-2.2,4.2-3.4,7.3-3.4c1.3,0,2.5,0.2,3.8,0.5
		s2.4,0.8,3.5,1.4l-1.4,4.9c-0.6-0.4-1.3-0.7-2.1-0.9c-0.8-0.2-1.6-0.4-2.4-0.4c-1.6,0-2.8,0.6-3.6,1.7c-0.8,1.2-1.2,2.8-1.2,5v1.4
		h8v5.1h-8v25.5H391.2z"/>
	<path class="st3" d="M807.6,490.7c-2.1,0-4.1-0.4-5.9-1.3c-1.8-0.9-3.4-2-4.7-3.5c-1.3-1.5-2.3-3.2-3.1-5.2c-0.7-2-1.1-4.1-1.1-6.4
		c0-2.2,0.3-4.3,1-6.2c0.7-1.9,1.7-3.6,2.9-5.1c1.3-1.5,2.7-2.6,4.4-3.5c1.7-0.9,3.6-1.3,5.6-1.3c2.5,0,4.7,0.6,6.7,1.8
		c1.9,1.2,3.4,2.8,4.5,4.6v-18.4h6.6v36c0,0.8,0.1,1.3,0.4,1.6c0.3,0.3,0.7,0.5,1.4,0.5v5.6c-0.7,0.1-1.2,0.2-1.7,0.2
		c-0.4,0-0.8,0.1-1,0.1c-1.3,0-2.4-0.3-3.2-1c-0.8-0.7-1.3-1.6-1.4-2.6l-0.1-2.3c-1.2,2-2.7,3.5-4.7,4.6
		C812.2,490.2,810,490.7,807.6,490.7z M809.2,485.1c1,0,1.9-0.2,2.9-0.5s1.8-0.8,2.6-1.3c0.8-0.6,1.5-1.2,2.1-2
		c0.6-0.8,1-1.6,1.2-2.5v-8.2c-0.4-1-0.9-1.9-1.5-2.8c-0.7-0.8-1.4-1.6-2.3-2.2c-0.8-0.6-1.7-1.1-2.7-1.4c-0.9-0.3-1.9-0.5-2.9-0.5
		c-1.3,0-2.5,0.3-3.6,0.9c-1.1,0.6-2.1,1.4-2.8,2.4c-0.8,1-1.4,2.1-1.9,3.4s-0.7,2.6-0.7,4c0,1.4,0.2,2.8,0.8,4.1
		c0.5,1.3,1.2,2.4,2.1,3.4s1.9,1.7,3,2.3C806.7,484.8,807.9,485.1,809.2,485.1z"/>
	<path class="st3" d="M847.2,490.7c-2.4,0-4.7-0.4-6.7-1.3c-2-0.9-3.7-2-5.1-3.5c-1.4-1.5-2.5-3.2-3.3-5.2c-0.8-2-1.2-4-1.2-6.2
		s0.4-4.3,1.2-6.3c0.8-2,1.9-3.7,3.3-5.2s3.1-2.7,5.1-3.5c2-0.9,4.2-1.3,6.7-1.3c2.4,0,4.6,0.4,6.6,1.3c2,0.9,3.7,2,5.1,3.5
		c1.4,1.5,2.5,3.2,3.2,5.1c0.7,1.9,1.1,4,1.1,6.1c0,0.5,0,0.9-0.1,1.4c0,0.4-0.1,0.8-0.1,1H838c0.1,1.4,0.4,2.7,1,3.8
		s1.2,2.1,2.1,2.9c0.9,0.8,1.8,1.5,2.9,1.9c1.1,0.4,2.3,0.7,3.5,0.7c0.9,0,1.7-0.1,2.6-0.3c0.9-0.2,1.6-0.5,2.4-1
		c0.7-0.4,1.4-0.9,1.9-1.5c0.6-0.6,1-1.3,1.3-2l5.6,1.6c-1.1,2.4-2.9,4.3-5.4,5.8C853.5,490,850.6,490.7,847.2,490.7z M856.8,472.1
		c-0.1-1.3-0.5-2.5-1-3.7c-0.5-1.1-1.2-2.1-2.1-2.9c-0.8-0.8-1.8-1.4-2.9-1.8c-1.1-0.4-2.3-0.7-3.5-0.7c-1.2,0-2.4,0.2-3.5,0.7
		c-1.1,0.4-2.1,1.1-2.9,1.8c-0.8,0.8-1.5,1.7-2,2.9c-0.5,1.1-0.8,2.3-1,3.7H856.8z"/>
	<path class="st3" d="M880.1,490.7c-2.5,0-5-0.4-7.5-1.2c-2.5-0.8-4.7-2-6.5-3.5l2.6-4.2c1.9,1.4,3.7,2.4,5.6,3.1
		c1.8,0.7,3.7,1,5.6,1c2,0,3.5-0.4,4.6-1.1c1.1-0.8,1.7-1.8,1.7-3.2c0-1.3-0.6-2.3-1.9-2.9s-3.3-1.3-6-2c-2-0.5-3.6-1-5-1.5
		c-1.4-0.5-2.5-1-3.4-1.7c-0.9-0.6-1.5-1.4-1.9-2.2c-0.4-0.8-0.6-1.9-0.6-3.1c0-1.6,0.3-3,0.9-4.3c0.6-1.2,1.5-2.3,2.6-3.1
		c1.1-0.9,2.4-1.5,3.9-2c1.5-0.4,3.1-0.7,4.8-0.7c2.4,0,4.6,0.4,6.6,1.1c2,0.7,3.9,1.8,5.5,3.1l-2.8,4c-2.9-2.3-6-3.5-9.3-3.5
		c-1.7,0-3.1,0.4-4.2,1c-1.1,0.7-1.7,1.8-1.7,3.3c0,0.6,0.1,1.2,0.4,1.6c0.2,0.4,0.6,0.8,1.2,1.1s1.2,0.6,2.1,0.9
		c0.9,0.3,1.9,0.6,3.2,0.9c2.1,0.5,4,1,5.5,1.6c1.5,0.5,2.8,1.1,3.8,1.8c1,0.7,1.7,1.5,2.2,2.5c0.5,0.9,0.7,2.1,0.7,3.4
		c0,3-1.1,5.4-3.4,7.1C887.1,489.9,884,490.7,880.1,490.7z"/>
	<path class="st3" d="M898.5,453.6v-7.3h6.6v7.3H898.5z M898.5,490.1v-31.4h6.6v31.4H898.5z"/>
	<path class="st3" d="M925.4,490.4c-2.1,0-4.1-0.4-5.8-1.3c-1.8-0.9-3.3-2-4.5-3.5c-1.3-1.5-2.2-3.2-2.9-5.1c-0.7-1.9-1-3.9-1-6.1
		c0-2.2,0.4-4.3,1.1-6.3c0.7-2,1.7-3.7,3-5.2c1.3-1.5,2.8-2.6,4.6-3.5c1.8-0.9,3.8-1.3,5.9-1.3c2.5,0,4.7,0.6,6.6,1.8
		c1.9,1.2,3.5,2.8,4.7,4.7v-5.9h5.8v30.5c0,2.3-0.4,4.3-1.3,6.1c-0.8,1.8-2,3.2-3.5,4.5c-1.5,1.2-3.3,2.1-5.3,2.8
		c-2,0.6-4.2,1-6.6,1c-3.5,0-6.4-0.6-8.7-1.8c-2.3-1.2-4.2-2.8-5.8-5l3.7-3.5c1.2,1.7,2.7,3,4.6,3.8c1.9,0.9,3.9,1.3,6.1,1.3
		c1.4,0,2.6-0.2,3.9-0.5c1.2-0.4,2.3-0.9,3.2-1.7c0.9-0.8,1.7-1.7,2.2-2.9c0.5-1.2,0.8-2.5,0.8-4.1v-4.8c-1.1,1.9-2.7,3.4-4.6,4.4
		S927.6,490.4,925.4,490.4z M927.6,485.1c1,0,2-0.2,2.9-0.5c0.9-0.3,1.8-0.8,2.5-1.4c0.8-0.6,1.4-1.2,2-2c0.6-0.7,1-1.5,1.2-2.4
		v-8.2c-0.4-1-0.9-1.9-1.6-2.7c-0.6-0.8-1.4-1.5-2.2-2.1c-0.8-0.6-1.7-1.1-2.6-1.4c-0.9-0.3-1.8-0.5-2.8-0.5c-1.4,0-2.7,0.3-3.9,0.9
		c-1.1,0.6-2.1,1.4-2.9,2.5c-0.8,1-1.4,2.2-1.9,3.4c-0.4,1.3-0.7,2.6-0.7,4c0,1.4,0.3,2.8,0.8,4.1c0.5,1.3,1.2,2.4,2.1,3.3
		c0.9,0.9,1.9,1.7,3.1,2.3C924.9,484.8,926.2,485.1,927.6,485.1z"/>
	<path class="st3" d="M978.9,490.1h-6.6v-17.6c0-3-0.5-5.1-1.4-6.5c-0.9-1.3-2.3-2-4.2-2c-1,0-1.9,0.2-2.9,0.5s-1.9,0.9-2.7,1.5
		s-1.6,1.4-2.3,2.3c-0.7,0.9-1.2,1.9-1.5,3v18.7h-6.6v-31.4h6v6.3c1.2-2.1,2.9-3.8,5.2-5c2.3-1.2,4.8-1.8,7.6-1.8
		c1.9,0,3.4,0.3,4.6,1c1.2,0.7,2.1,1.6,2.8,2.8c0.7,1.2,1.2,2.5,1.5,4.1c0.3,1.5,0.4,3.2,0.4,4.9V490.1z"/>
</g>
<g>
	<path class="st3" d="M523.2,459.3c0-3.8,0.7-7.7,2.1-11.5c1.4-3.8,3.4-7.2,6.1-10.3c2.7-3,5.9-5.5,9.8-7.3
		c3.8-1.9,8.2-2.8,13.1-2.8c5.8,0,10.8,1.3,14.9,3.9c4.1,2.6,7.3,5.9,9.4,10.1l-7.9,5.3c-0.9-1.9-2-3.5-3.2-4.9
		c-1.3-1.3-2.6-2.4-4.1-3.2c-1.5-0.8-3.1-1.3-4.7-1.7c-1.6-0.3-3.2-0.5-4.7-0.5c-3.4,0-6.3,0.7-8.8,2c-2.5,1.3-4.6,3.1-6.3,5.4
		c-1.7,2.2-3,4.7-3.9,7.5c-0.9,2.8-1.3,5.5-1.3,8.3c0,3.1,0.5,6.1,1.5,8.9c1,2.8,2.4,5.3,4.3,7.5c1.8,2.2,4,3.9,6.5,5.2
		c2.5,1.3,5.3,1.9,8.3,1.9c1.6,0,3.2-0.2,4.8-0.6c1.6-0.4,3.2-1,4.8-1.9c1.5-0.9,2.9-2,4.2-3.3c1.3-1.3,2.4-2.9,3.2-4.8l8.4,4.8
		c-1,2.4-2.5,4.5-4.3,6.3c-1.9,1.8-4,3.4-6.3,4.6s-4.8,2.2-7.4,2.9c-2.6,0.7-5.2,1-7.7,1c-4.5,0-8.6-1-12.3-2.9
		c-3.7-1.9-6.9-4.4-9.6-7.5c-2.7-3.1-4.8-6.6-6.3-10.5C524,467.4,523.2,463.4,523.2,459.3z"/>
	<path class="st3" d="M626.6,442.9c-0.6-0.7-1.5-1.4-2.6-2.1c-1.1-0.8-2.5-1.5-4-2.1c-1.5-0.7-3.2-1.2-5-1.6
		c-1.8-0.4-3.7-0.6-5.6-0.6c-4.3,0-7.4,0.8-9.4,2.3c-2,1.6-3,3.7-3,6.5c0,1.6,0.3,2.8,0.9,3.8s1.6,1.9,2.9,2.6c1.3,0.8,3,1.4,5,2
		c2,0.6,4.3,1.2,6.9,1.8c3.2,0.8,6.2,1.7,8.8,2.6c2.6,1,4.8,2.1,6.6,3.5c1.8,1.4,3.2,3.1,4.2,5.1c1,2,1.5,4.5,1.5,7.3
		c0,3.2-0.6,6-1.8,8.4c-1.2,2.3-2.9,4.2-5,5.7c-2.1,1.5-4.6,2.6-7.4,3.2c-2.8,0.7-5.8,1-9.1,1c-4.9,0-9.6-0.7-14.1-2.2
		c-4.5-1.5-8.6-3.6-12.3-6.4l4.6-8.6c0.8,0.8,1.9,1.7,3.4,2.6c1.5,1,3.2,1.8,5.1,2.7c1.9,0.8,4.1,1.5,6.3,2.1
		c2.3,0.6,4.6,0.9,7.1,0.9c4,0,7-0.7,9.2-2.1c2.2-1.4,3.2-3.4,3.2-6.1c0-1.6-0.4-3-1.2-4c-0.8-1.1-2-2-3.5-2.8
		c-1.5-0.8-3.3-1.5-5.5-2.2c-2.2-0.7-4.6-1.3-7.4-2.1c-3.2-0.8-6-1.7-8.3-2.7c-2.4-0.9-4.3-2.1-5.9-3.4c-1.6-1.3-2.7-2.9-3.6-4.6
		c-0.8-1.8-1.2-3.9-1.2-6.4c0-3.1,0.6-5.9,1.8-8.3c1.2-2.4,2.8-4.5,4.9-6.1c2.1-1.6,4.5-2.9,7.3-3.7c2.8-0.8,5.9-1.3,9.2-1.3
		c4.3,0,8.3,0.7,12,2.1c3.7,1.4,6.9,3.1,9.6,5.1L626.6,442.9z"/>
	<path class="st3" d="M681.6,442.9c-0.6-0.7-1.5-1.4-2.6-2.1c-1.1-0.8-2.5-1.5-4-2.1c-1.5-0.7-3.2-1.2-5-1.6
		c-1.8-0.4-3.7-0.6-5.6-0.6c-4.3,0-7.4,0.8-9.4,2.3c-2,1.6-3,3.7-3,6.5c0,1.6,0.3,2.8,0.9,3.8s1.6,1.9,2.9,2.6c1.3,0.8,3,1.4,5,2
		c2,0.6,4.3,1.2,6.9,1.8c3.2,0.8,6.2,1.7,8.8,2.6c2.6,1,4.8,2.1,6.6,3.5c1.8,1.4,3.2,3.1,4.2,5.1c1,2,1.5,4.5,1.5,7.3
		c0,3.2-0.6,6-1.8,8.4c-1.2,2.3-2.9,4.2-5,5.7c-2.1,1.5-4.6,2.6-7.4,3.2c-2.8,0.7-5.8,1-9.1,1c-4.9,0-9.6-0.7-14.1-2.2
		c-4.5-1.5-8.6-3.6-12.3-6.4l4.6-8.6c0.8,0.8,1.9,1.7,3.4,2.6c1.5,1,3.2,1.8,5.1,2.7c1.9,0.8,4.1,1.5,6.3,2.1
		c2.3,0.6,4.6,0.9,7.1,0.9c4,0,7-0.7,9.2-2.1c2.2-1.4,3.2-3.4,3.2-6.1c0-1.6-0.4-3-1.2-4c-0.8-1.1-2-2-3.5-2.8
		c-1.5-0.8-3.3-1.5-5.5-2.2c-2.2-0.7-4.6-1.3-7.4-2.1c-3.2-0.8-6-1.7-8.3-2.7c-2.4-0.9-4.3-2.1-5.9-3.4c-1.6-1.3-2.7-2.9-3.6-4.6
		c-0.8-1.8-1.2-3.9-1.2-6.4c0-3.1,0.6-5.9,1.8-8.3c1.2-2.4,2.8-4.5,4.9-6.1c2.1-1.6,4.5-2.9,7.3-3.7c2.8-0.8,5.9-1.3,9.2-1.3
		c4.3,0,8.3,0.7,12,2.1c3.7,1.4,6.9,3.1,9.6,5.1L681.6,442.9z"/>
</g>
</svg>
