<?xml version="1.0" encoding="utf-8"?>
<!-- Generator: Adobe Illustrator 22.1.0, SVG Export Plug-In . SVG Version: 6.00 Build 0)  -->
<svg version="1.1" xmlns="http://www.w3.org/2000/svg" xmlns:xlink="http://www.w3.org/1999/xlink" x="0px" y="0px"
	 viewBox="0 0 1024 768" style="enable-background:new 0 0 1024 768;" xml:space="preserve">
<style type="text/css">
	.st0{fill:#E6D72B;}
	.st1{fill:#E92639;}
	.st2{fill:#FFFFFF;}
	.st3{fill:#231F20;}
	.st4{fill:none;stroke:#E92639;stroke-miterlimit:10;}
</style>
<g id="Layer_1">
	<g id="Layer_3">
	</g>
	<g>
		<g>
			<path class="st0" d="M772,220.9c0,0-61.4-82.2-138.9,27.5l-11.3,43.2l168.1-19.7L772,220.9z"/>
			<g>
				<path class="st1" d="M556.3,248.4c-3.4-17.2,35.3,10.8,35.3,10.8s9.4,7.6,20.8-2.2c0,0,73.1-70.6,140-41
					c7.4,3.3,14.8,7.8,22,13.8c-15.8,7.9-26.6,23.5-26.6,41.3c0,16.7,9.4,31.3,23.6,39.7c-32.8,18.2-90.2,27.9-163.3-28
					c0,0-12.2-6.8-14.3,0s-37.3,16.5-37.3,16.5s-3.6-19.7,21.5-29.4C578,269.9,559.7,265.6,556.3,248.4z"/>
				<path class="st0" d="M747.8,271.2c0-17.9,10.8-33.4,26.6-41.3c9.5,8,18.7,18.5,27.3,32.2c0,0,5.4,4.7,0,20.8
					c-1.9,5.7-12.5,18.1-30.4,28C757.2,302.5,747.8,287.9,747.8,271.2z"/>
			</g>
			<circle class="st2" cx="780.8" cy="257.8" r="6.4"/>
			<circle class="st3" cx="780.8" cy="257.8" r="4"/>
			<circle class="st2" cx="777.8" cy="257.8" r="3.4"/>
			<g>
				<path class="st4" d="M803.8,275.3c-1.3,0.2-2.7,0.4-4.2,0.4c-6.3,0-11.5-2.3-12.4-5.4"/>
			</g>
		</g>
		<g>
			<path class="st0" d="M945.5,335c0,0-61.4-82.2-138.9,27.5l-11.3,43.2l168.1-19.7L945.5,335z"/>
			<g>
				<path class="st1" d="M729.8,362.5c-3.4-17.2,35.3,10.8,35.3,10.8s9.4,7.6,20.8-2.2c0,0,73.1-70.6,140-41
					c7.4,3.3,14.8,7.8,22,13.8c-15.8,7.9-26.6,23.5-26.6,41.3c0,16.7,9.4,31.3,23.6,39.7c-32.8,18.2-90.2,27.9-163.3-28
					c0,0-12.2-6.8-14.3,0c-2.2,6.8-37.3,16.5-37.3,16.5s-3.6-19.7,21.5-29.4C751.5,384,733.3,379.7,729.8,362.5z"/>
				<path class="st0" d="M921.4,385.2c0-17.9,10.8-33.4,26.6-41.3c9.5,8,18.7,18.5,27.3,32.2c0,0,5.4,4.7,0,20.8
					c-1.9,5.7-12.5,18.1-30.4,28C930.8,416.6,921.4,401.9,921.4,385.2z"/>
			</g>
			<circle class="st2" cx="954.4" cy="371.9" r="6.4"/>
			<circle class="st3" cx="954.4" cy="371.9" r="4"/>
			<circle class="st2" cx="951.4" cy="371.9" r="3.4"/>
			<g>
				<path class="st4" d="M977.3,389.4c-1.3,0.2-2.7,0.4-4.2,0.4c-6.3,0-11.5-2.3-12.4-5.4"/>
			</g>
		</g>
		<g>
			<path class="st0" d="M797.7,462c0,0-61.4-82.2-138.9,27.5l-11.3,43.2L815.7,513L797.7,462z"/>
			<g>
				<path class="st1" d="M582,489.6c-3.4-17.2,35.3,10.8,35.3,10.8s9.4,7.6,20.8-2.2c0,0,73.1-70.6,140-41c7.4,3.3,14.8,7.8,22,13.8
					c-15.8,7.9-26.6,23.5-26.6,41.3c0,16.7,9.4,31.3,23.6,39.7c-32.8,18.2-90.2,27.9-163.3-28c0,0-12.2-6.8-14.3,0
					c-2.2,6.8-37.3,16.5-37.3,16.5s-3.6-19.7,21.5-29.4C603.7,511.1,585.4,506.8,582,489.6z"/>
				<path class="st0" d="M773.6,512.3c0-17.9,10.8-33.4,26.6-41.3c9.5,8,18.7,18.5,27.3,32.2c0,0,5.4,4.7,0,20.8
					c-1.9,5.7-12.5,18.1-30.4,28C783,543.7,773.6,529,773.6,512.3z"/>
			</g>
			<circle class="st2" cx="806.5" cy="499" r="6.4"/>
			<circle class="st3" cx="806.5" cy="499" r="4"/>
			<circle class="st2" cx="803.6" cy="499" r="3.4"/>
			<g>
				<path class="st4" d="M829.5,516.5c-1.3,0.2-2.7,0.4-4.2,0.4c-6.3,0-11.5-2.3-12.4-5.4"/>
			</g>
		</g>
		<g>
			<path class="st0" d="M647.9,352.4c0,0-61.4-82.2-138.9,27.5l-11.3,43.2l168.1-19.7L647.9,352.4z"/>
			<g>
				<path class="st1" d="M432.3,380c-3.4-17.2,35.3,10.8,35.3,10.8s9.4,7.6,20.8-2.2c0,0,73.1-70.6,140-41c7.4,3.3,14.8,7.8,22,13.8
					c-15.8,7.9-26.6,23.5-26.6,41.3c0,16.7,9.4,31.3,23.6,39.7c-32.8,18.2-90.2,27.9-163.3-28c0,0-12.2-6.8-14.3,0
					c-2.2,6.8-37.3,16.5-37.3,16.5s-3.6-19.7,21.5-29.4C453.9,401.5,435.7,397.2,432.3,380z"/>
				<path class="st0" d="M623.8,402.7c0-17.9,10.8-33.4,26.6-41.3c9.5,8,18.7,18.5,27.3,32.2c0,0,5.4,4.7,0,20.8
					c-1.9,5.7-12.5,18.1-30.4,28C633.2,434.1,623.8,419.4,623.8,402.7z"/>
			</g>
			<circle class="st2" cx="656.8" cy="389.4" r="6.4"/>
			<circle class="st3" cx="656.8" cy="389.4" r="4"/>
			<circle class="st2" cx="653.8" cy="389.4" r="3.4"/>
			<g>
				<path class="st4" d="M679.7,406.9c-1.3,0.2-2.7,0.4-4.2,0.4c-6.3,0-11.5-2.3-12.4-5.4"/>
			</g>
		</g>
		<g>
			<path class="st0" d="M541.3,475c0,0-38.7-45.3-87.6,15.2l-7.2,23.8l106.1-10.9L541.3,475z"/>
			<g>
				<path class="st1" d="M405.2,490.2c-2.2-9.5,22.3,5.9,22.3,5.9s5.9,4.2,13.1-1.2c0,0,46.1-38.9,88.3-22.6
					c4.7,1.8,9.3,4.3,13.9,7.6c-10,4.4-16.8,12.9-16.8,22.8c0,9.2,5.9,17.3,14.9,21.8c-20.7,10-56.9,15.4-103-15.4c0,0-7.7-3.8-9,0
					s-23.5,9.1-23.5,9.1s-2.3-10.9,13.6-16.2C418.9,502,407.3,499.6,405.2,490.2z"/>
				<path class="st0" d="M526,502.7c0-9.8,6.8-18.4,16.8-22.8c6,4.4,11.8,10.2,17.2,17.7c0,0,3.4,2.6,0,11.4
					c-1.2,3.1-7.9,10-19.2,15.4C532,519.9,526,511.9,526,502.7z"/>
			</g>
			<ellipse class="st2" cx="546.8" cy="495.3" rx="4" ry="3.5"/>
			<ellipse class="st3" cx="546.8" cy="495.3" rx="2.5" ry="2.2"/>
			<ellipse class="st2" cx="545" cy="495.3" rx="2.2" ry="1.9"/>
			<g>
				<path class="st4" d="M561.3,505c-0.8,0.1-1.7,0.2-2.6,0.2c-4,0-7.3-1.3-7.9-2.9"/>
			</g>
		</g>
		<g>
			<path class="st0" d="M477.4,277.5c0,0-38.7-45.3-87.6,15.2l-7.2,23.8l106.1-10.9L477.4,277.5z"/>
			<g>
				<path class="st1" d="M341.4,292.6c-2.2-9.5,22.3,5.9,22.3,5.9s5.9,4.2,13.1-1.2c0,0,46.1-38.9,88.3-22.6
					c4.7,1.8,9.3,4.3,13.9,7.6c-10,4.4-16.8,12.9-16.8,22.8c0,9.2,5.9,17.3,14.9,21.8c-20.7,10-56.9,15.4-103-15.4c0,0-7.7-3.8-9,0
					s-23.5,9.1-23.5,9.1s-2.3-10.9,13.6-16.2C355.1,304.5,343.5,302.1,341.4,292.6z"/>
				<path class="st0" d="M462.2,305.2c0-9.8,6.8-18.4,16.8-22.8c6,4.4,11.8,10.2,17.2,17.7c0,0,3.4,2.6,0,11.4
					c-1.2,3.1-7.9,10-19.2,15.4C468.1,322.4,462.2,314.4,462.2,305.2z"/>
			</g>
			<ellipse class="st2" cx="483" cy="297.8" rx="4" ry="3.5"/>
			<ellipse class="st3" cx="483" cy="297.8" rx="2.5" ry="2.2"/>
			<ellipse class="st2" cx="481.1" cy="297.8" rx="2.2" ry="1.9"/>
			<g>
				<path class="st4" d="M497.5,307.5c-0.8,0.1-1.7,0.2-2.6,0.2c-4,0-7.3-1.3-7.9-2.9"/>
			</g>
		</g>
		<g>
			<path class="st0" d="M384.1,363.9c0,0-38.7-45.3-87.6,15.2l-7.2,23.8l106.1-10.9L384.1,363.9z"/>
			<g>
				<path class="st1" d="M248,379c-2.2-9.5,22.3,5.9,22.3,5.9s5.9,4.2,13.1-1.2c0,0,46.1-38.9,88.3-22.6c4.7,1.8,9.3,4.3,13.9,7.6
					c-10,4.4-16.8,12.9-16.8,22.8c0,9.2,5.9,17.3,14.9,21.8c-20.7,10-56.9,15.4-103-15.4c0,0-7.7-3.8-9,0s-23.5,9.1-23.5,9.1
					s-2.3-10.9,13.6-16.2C261.7,390.9,250.2,388.5,248,379z"/>
				<path class="st0" d="M368.9,391.5c0-9.8,6.8-18.4,16.8-22.8c6,4.4,11.8,10.2,17.2,17.7c0,0,3.4,2.6,0,11.4
					c-1.2,3.1-7.9,10-19.2,15.4C374.8,408.8,368.9,400.7,368.9,391.5z"/>
			</g>
			<ellipse class="st2" cx="389.7" cy="384.2" rx="4" ry="3.5"/>
			<ellipse class="st3" cx="389.7" cy="384.2" rx="2.5" ry="2.2"/>
			<ellipse class="st2" cx="387.8" cy="384.2" rx="2.2" ry="1.9"/>
			<g>
				<path class="st4" d="M404.2,393.8c-0.8,0.1-1.7,0.2-2.6,0.2c-4,0-7.3-1.3-7.9-2.9"/>
			</g>
		</g>
		<g>
			<path class="st0" d="M374.7,450.4c0,0-38.7-45.3-87.6,15.2l-7.2,23.8l106.1-10.9L374.7,450.4z"/>
			<g>
				<path class="st1" d="M238.7,465.6c-2.2-9.5,22.3,5.9,22.3,5.9s5.9,4.2,13.1-1.2c0,0,46.1-38.9,88.3-22.6
					c4.7,1.8,9.3,4.3,13.9,7.6c-10,4.4-16.8,12.9-16.8,22.8c0,9.2,5.9,17.3,14.9,21.8c-20.7,10-56.9,15.4-103-15.4c0,0-7.7-3.8-9,0
					c-1.4,3.8-23.5,9.1-23.5,9.1s-2.3-10.9,13.6-16.2C252.4,477.4,240.8,475.1,238.7,465.6z"/>
				<path class="st0" d="M359.5,478.1c0-9.8,6.8-18.4,16.8-22.8c6,4.4,11.8,10.2,17.2,17.7c0,0,3.4,2.6,0,11.4
					c-1.2,3.1-7.9,10-19.2,15.4C365.4,495.4,359.5,487.3,359.5,478.1z"/>
			</g>
			<ellipse class="st2" cx="380.3" cy="470.8" rx="4" ry="3.5"/>
			<ellipse class="st3" cx="380.3" cy="470.8" rx="2.5" ry="2.2"/>
			<ellipse class="st2" cx="378.4" cy="470.8" rx="2.2" ry="1.9"/>
			<g>
				<path class="st4" d="M394.8,480.4c-0.8,0.1-1.7,0.2-2.6,0.2c-4,0-7.3-1.3-7.9-2.9"/>
			</g>
		</g>
		<g>
			<path class="st0" d="M919.4,472.3c0,0-18.7-22.8-42.3,7.6l-3.5,12l51.2-5.5L919.4,472.3z"/>
			<g>
				<path class="st1" d="M853.8,479.9c-1-4.8,10.8,3,10.8,3s2.9,2.1,6.3-0.6c0,0,22.3-19.5,42.6-11.4c2.3,0.9,4.5,2.2,6.7,3.8
					c-4.8,2.2-8.1,6.5-8.1,11.4c0,4.6,2.9,8.7,7.2,11c-10,5-27.4,7.7-49.7-7.8c0,0-3.7-1.9-4.4,0c-0.7,1.9-11.4,4.6-11.4,4.6
					s-1.1-5.5,6.5-8.1C860.4,485.9,854.8,484.7,853.8,479.9z"/>
				<path class="st0" d="M912.1,486.2c0-4.9,3.3-9.2,8.1-11.4c2.9,2.2,5.7,5.1,8.3,8.9c0,0,1.6,1.3,0,5.8c-0.6,1.6-3.8,5-9.2,7.8
					C914.9,494.9,912.1,490.8,912.1,486.2z"/>
			</g>
			<ellipse class="st2" cx="922.1" cy="482.5" rx="1.9" ry="1.8"/>
			<ellipse class="st3" cx="922.1" cy="482.5" rx="1.2" ry="1.1"/>
			<ellipse class="st2" cx="921.2" cy="482.5" rx="1" ry="0.9"/>
			<g>
				<path class="st4" d="M929.1,487.4c-0.4,0.1-0.8,0.1-1.3,0.1c-1.9,0-3.5-0.6-3.8-1.5"/>
			</g>
		</g>
		<g>
			<path class="st0" d="M228.7,428.8c0,0-18.7-22.8-42.3,7.6l-3.5,12l51.2-5.5L228.7,428.8z"/>
			<g>
				<path class="st1" d="M163.1,436.4c-1-4.8,10.8,3,10.8,3s2.9,2.1,6.3-0.6c0,0,22.3-19.5,42.6-11.4c2.3,0.9,4.5,2.2,6.7,3.8
					c-4.8,2.2-8.1,6.5-8.1,11.4c0,4.6,2.9,8.7,7.2,11c-10,5-27.4,7.7-49.7-7.8c0,0-3.7-1.9-4.4,0c-0.7,1.9-11.4,4.6-11.4,4.6
					s-1.1-5.5,6.5-8.1C169.7,442.4,164.1,441.2,163.1,436.4z"/>
				<path class="st0" d="M221.4,442.7c0-4.9,3.3-9.2,8.1-11.4c2.9,2.2,5.7,5.1,8.3,8.9c0,0,1.6,1.3,0,5.8c-0.6,1.6-3.8,5-9.2,7.8
					C224.3,451.4,221.4,447.4,221.4,442.7z"/>
			</g>
			<ellipse class="st2" cx="231.4" cy="439" rx="1.9" ry="1.8"/>
			<ellipse class="st3" cx="231.4" cy="439" rx="1.2" ry="1.1"/>
			<ellipse class="st2" cx="230.5" cy="439" rx="1" ry="0.9"/>
			<g>
				<path class="st4" d="M238.4,443.9c-0.4,0.1-0.8,0.1-1.3,0.1c-1.9,0-3.5-0.6-3.8-1.5"/>
			</g>
		</g>
		<g>
			<path class="st0" d="M307.9,517.6c0,0-18.7-22.8-42.3,7.6l-3.5,12l51.2-5.5L307.9,517.6z"/>
			<g>
				<path class="st1" d="M242.3,525.2c-1-4.8,10.8,3,10.8,3s2.9,2.1,6.3-0.6c0,0,22.3-19.5,42.6-11.4c2.3,0.9,4.5,2.2,6.7,3.8
					c-4.8,2.2-8.1,6.5-8.1,11.4c0,4.6,2.9,8.7,7.2,11c-10,5-27.4,7.7-49.7-7.8c0,0-3.7-1.9-4.4,0c-0.7,1.9-11.4,4.6-11.4,4.6
					s-1.1-5.5,6.5-8.1C248.9,531.1,243.3,530,242.3,525.2z"/>
				<path class="st0" d="M300.6,531.5c0-4.9,3.3-9.2,8.1-11.4c2.9,2.2,5.7,5.1,8.3,8.9c0,0,1.6,1.3,0,5.8c-0.6,1.6-3.8,5-9.2,7.8
					C303.5,540.2,300.6,536.1,300.6,531.5z"/>
			</g>
			<ellipse class="st2" cx="310.6" cy="527.8" rx="1.9" ry="1.8"/>
			<ellipse class="st3" cx="310.6" cy="527.8" rx="1.2" ry="1.1"/>
			<ellipse class="st2" cx="309.7" cy="527.8" rx="1" ry="0.9"/>
			<g>
				<path class="st4" d="M317.6,532.6c-0.4,0.1-0.8,0.1-1.3,0.1c-1.9,0-3.5-0.6-3.8-1.5"/>
			</g>
		</g>
		<g>
			<path class="st0" d="M438.1,546.7c0,0-18.7-22.8-42.3,7.6l-3.5,12l51.2-5.5L438.1,546.7z"/>
			<g>
				<path class="st1" d="M372.4,554.3c-1-4.8,10.8,3,10.8,3s2.9,2.1,6.3-0.6c0,0,22.3-19.5,42.6-11.4c2.3,0.9,4.5,2.2,6.7,3.8
					c-4.8,2.2-8.1,6.5-8.1,11.4c0,4.6,2.9,8.7,7.2,11c-10,5-27.4,7.7-49.7-7.8c0,0-3.7-1.9-4.4,0c-0.7,1.9-11.4,4.6-11.4,4.6
					s-1.1-5.5,6.5-8.1C379,560.2,373.5,559,372.4,554.3z"/>
				<path class="st0" d="M430.7,560.6c0-4.9,3.3-9.2,8.1-11.4c2.9,2.2,5.7,5.1,8.3,8.9c0,0,1.6,1.3,0,5.8c-0.6,1.6-3.8,5-9.2,7.8
					C433.6,569.3,430.7,565.2,430.7,560.6z"/>
			</g>
			<ellipse class="st2" cx="440.8" cy="556.9" rx="1.9" ry="1.8"/>
			<ellipse class="st3" cx="440.8" cy="556.9" rx="1.2" ry="1.1"/>
			<ellipse class="st2" cx="439.9" cy="556.9" rx="1" ry="0.9"/>
			<g>
				<path class="st4" d="M447.8,561.7c-0.4,0.1-0.8,0.1-1.3,0.1c-1.9,0-3.5-0.6-3.8-1.5"/>
			</g>
		</g>
		<g>
			<path class="st0" d="M536.1,219.5c0,0-18.7-22.8-42.3,7.6l-3.5,12l51.2-5.5L536.1,219.5z"/>
			<g>
				<path class="st1" d="M470.4,227.1c-1-4.8,10.8,3,10.8,3s2.9,2.1,6.3-0.6c0,0,22.3-19.5,42.6-11.4c2.3,0.9,4.5,2.2,6.7,3.8
					c-4.8,2.2-8.1,6.5-8.1,11.4c0,4.6,2.9,8.7,7.2,11c-10,5-27.4,7.7-49.7-7.8c0,0-3.7-1.9-4.4,0c-0.7,1.9-11.4,4.6-11.4,4.6
					s-1.1-5.5,6.5-8.1C477,233.1,471.5,231.9,470.4,227.1z"/>
				<path class="st0" d="M528.7,233.4c0-4.9,3.3-9.2,8.1-11.4c2.9,2.2,5.7,5.1,8.3,8.9c0,0,1.6,1.3,0,5.8c-0.6,1.6-3.8,5-9.2,7.8
					C531.6,242.1,528.7,238,528.7,233.4z"/>
			</g>
			<ellipse class="st2" cx="538.8" cy="229.7" rx="1.9" ry="1.8"/>
			<ellipse class="st3" cx="538.8" cy="229.7" rx="1.2" ry="1.1"/>
			<ellipse class="st2" cx="537.9" cy="229.7" rx="1" ry="0.9"/>
			<g>
				<path class="st4" d="M545.8,234.6c-0.4,0.1-0.8,0.1-1.3,0.1c-1.9,0-3.5-0.6-3.8-1.5"/>
			</g>
		</g>
		<g>
			<path class="st0" d="M186.5,379.4c0,0-18.7-22.8-42.3,7.6l-3.5,12l51.2-5.5L186.5,379.4z"/>
			<g>
				<path class="st1" d="M120.8,387c-1-4.8,10.8,3,10.8,3s2.9,2.1,6.3-0.6c0,0,22.3-19.5,42.6-11.4c2.3,0.9,4.5,2.2,6.7,3.8
					c-4.8,2.2-8.1,6.5-8.1,11.4c0,4.6,2.9,8.7,7.2,11c-10,5-27.4,7.7-49.7-7.8c0,0-3.7-1.9-4.4,0c-0.7,1.9-11.4,4.6-11.4,4.6
					s-1.1-5.5,6.5-8.1C127.4,393,121.8,391.8,120.8,387z"/>
				<path class="st0" d="M179.1,393.3c0-4.9,3.3-9.2,8.1-11.4c2.9,2.2,5.7,5.1,8.3,8.9c0,0,1.6,1.3,0,5.8c-0.6,1.6-3.8,5-9.2,7.8
					C182,402,179.1,398,179.1,393.3z"/>
			</g>
			<ellipse class="st2" cx="189.1" cy="389.7" rx="1.9" ry="1.8"/>
			<ellipse class="st3" cx="189.1" cy="389.7" rx="1.2" ry="1.1"/>
			<ellipse class="st2" cx="188.2" cy="389.6" rx="1" ry="0.9"/>
			<g>
				<path class="st4" d="M196.1,394.5c-0.4,0.1-0.8,0.1-1.3,0.1c-1.9,0-3.5-0.6-3.8-1.5"/>
			</g>
		</g>
		<g>
			<path class="st0" d="M249.4,330c0,0-18.7-22.8-42.3,7.6l-3.5,12l51.2-5.5L249.4,330z"/>
			<g>
				<path class="st1" d="M183.7,337.6c-1-4.8,10.8,3,10.8,3s2.9,2.1,6.3-0.6c0,0,22.3-19.5,42.6-11.4c2.3,0.9,4.5,2.2,6.7,3.8
					c-4.8,2.2-8.1,6.5-8.1,11.4c0,4.6,2.9,8.7,7.2,11c-10,5-27.4,7.7-49.7-7.8c0,0-3.7-1.9-4.4,0c-0.7,1.9-11.4,4.6-11.4,4.6
					s-1.1-5.5,6.5-8.1C190.3,343.5,184.7,342.4,183.7,337.6z"/>
				<path class="st0" d="M242,343.9c0-4.9,3.3-9.2,8.1-11.4c2.9,2.2,5.7,5.1,8.3,8.9c0,0,1.6,1.3,0,5.8c-0.6,1.6-3.8,5-9.2,7.8
					C244.9,352.6,242,348.5,242,343.9z"/>
			</g>
			<ellipse class="st2" cx="252" cy="340.2" rx="1.9" ry="1.8"/>
			<ellipse class="st3" cx="252" cy="340.2" rx="1.2" ry="1.1"/>
			<ellipse class="st2" cx="251.1" cy="340.2" rx="1" ry="0.9"/>
			<g>
				<path class="st4" d="M259,345c-0.4,0.1-0.8,0.1-1.3,0.1c-1.9,0-3.5-0.6-3.8-1.5"/>
			</g>
		</g>
		<g>
			<path class="st0" d="M315.8,265.4c0,0-18.7-22.8-42.3,7.6l-3.5,12l51.2-5.5L315.8,265.4z"/>
			<g>
				<path class="st1" d="M250.1,273c-1-4.8,10.8,3,10.8,3s2.9,2.1,6.3-0.6c0,0,22.3-19.5,42.6-11.4c2.3,0.9,4.5,2.2,6.7,3.8
					c-4.8,2.2-8.1,6.5-8.1,11.4c0,4.6,2.9,8.7,7.2,11c-10,5-27.4,7.7-49.7-7.8c0,0-3.7-1.9-4.4,0s-11.4,4.6-11.4,4.6
					s-1.1-5.5,6.5-8.1C256.7,278.9,251.2,277.7,250.1,273z"/>
				<path class="st0" d="M308.4,279.3c0-4.9,3.3-9.2,8.1-11.4c2.9,2.2,5.7,5.1,8.3,8.9c0,0,1.6,1.3,0,5.8c-0.6,1.6-3.8,5-9.2,7.8
					C311.3,288,308.4,283.9,308.4,279.3z"/>
			</g>
			<ellipse class="st2" cx="318.5" cy="275.6" rx="1.9" ry="1.8"/>
			<ellipse class="st3" cx="318.5" cy="275.6" rx="1.2" ry="1.1"/>
			<ellipse class="st2" cx="317.6" cy="275.6" rx="1" ry="0.9"/>
			<g>
				<path class="st4" d="M325.5,280.4c-0.4,0.1-0.8,0.1-1.3,0.1c-1.9,0-3.5-0.6-3.8-1.5"/>
			</g>
		</g>
		<g>
			<path class="st0" d="M93.3,414.6c0,0-18.7-22.8-42.3,7.6l-3.5,12l51.2-5.5L93.3,414.6z"/>
			<g>
				<path class="st1" d="M27.6,422.2c-1-4.8,10.8,3,10.8,3s2.9,2.1,6.3-0.6c0,0,22.3-19.5,42.6-11.4c2.3,0.9,4.5,2.2,6.7,3.8
					c-4.8,2.2-8.1,6.5-8.1,11.4c0,4.6,2.9,8.7,7.2,11c-10,5-27.4,7.7-49.7-7.8c0,0-3.7-1.9-4.4,0s-11.4,4.6-11.4,4.6
					s-1.1-5.5,6.5-8.1C34.2,428.2,28.7,427,27.6,422.2z"/>
				<path class="st0" d="M85.9,428.5c0-4.9,3.3-9.2,8.1-11.4c2.9,2.2,5.7,5.1,8.3,8.9c0,0,1.6,1.3,0,5.8c-0.6,1.6-3.8,5-9.2,7.8
					C88.8,437.2,85.9,433.1,85.9,428.5z"/>
			</g>
			<ellipse class="st2" cx="96" cy="424.8" rx="1.9" ry="1.8"/>
			<ellipse class="st3" cx="96" cy="424.8" rx="1.2" ry="1.1"/>
			<ellipse class="st2" cx="95.1" cy="424.8" rx="1" ry="0.9"/>
			<g>
				<path class="st4" d="M103,429.7c-0.4,0.1-0.8,0.1-1.3,0.1c-1.9,0-3.5-0.6-3.8-1.5"/>
			</g>
		</g>
	</g>
</g>
<g id="Layer_4">
</g>
<g id="Layer_2">
</g>
</svg>
