<?xml version="1.0" encoding="utf-8"?>
<!-- Generator: Adobe Illustrator 22.1.0, SVG Export Plug-In . SVG Version: 6.00 Build 0)  -->
<svg version="1.1" id="Layer_1" xmlns="http://www.w3.org/2000/svg" xmlns:xlink="http://www.w3.org/1999/xlink" x="0px" y="0px"
	 viewBox="0 0 300 300" style="enable-background:new 0 0 300 300;" xml:space="preserve">
<style type="text/css">
	.st0{fill:#FFFFFF;}
	.st1{fill:#20242F;}
	.st2{fill:#E7BC30;}
	.st3{fill:#F2E641;}
	.st4{fill:#E6D72B;}
</style>
<g>
	<circle class="st0" cx="56.1" cy="75.4" r="6.8"/>
	<circle class="st1" cx="56.1" cy="75.4" r="4.9"/>
	<circle class="st0" cx="59.1" cy="76.3" r="4.1"/>
	<path class="st2" d="M138.4,166.3c0,0,0-78.7,11.4-97.8c11.4-19.1-8.3-27.6-8.3-27.6S95,3,51.2,61.2s7.3,107.2,7.3,107.2
		s27.5,29.3,58.8,27.1C117.3,195.4,136.1,196.8,138.4,166.3z"/>
	<path class="st3" d="M146.2,108.7c0,0-86.8-154.4-113.2-2.3c0,0-0.3,9-8.1,9.1c-12.6,0.1-12.6,0.1-12.6,0.1s-4.7-7.4-6.1,0v6.1
		c0,0,3.1,6.1,6,0l13.5,0.3c0,0,6.4-0.6,10.1,7.3s30.7,101.5,108.8-2.1c0,0,9.1-8.3,24.7,17.2c0,0,33.5-27.7,2.3-49.9
		C171.7,94.4,157.9,117.2,146.2,108.7z"/>
	<path class="st4" d="M152,55.4"/>
	<g>
		<circle class="st0" cx="56.2" cy="75.5" r="6.8"/>
		<circle class="st1" cx="56.2" cy="75.5" r="4.9"/>
		<ellipse class="st0" cx="58" cy="76.5" rx="3" ry="4.1"/>
	</g>
	<path class="st2" d="M83,121.2c0,0-6.9,30.1,8.6,23c15.5-7.1,21.3-16.2,21.3-16.2s11.4-8.8-15.7-11.4L83,121.2z"/>
</g>
<g>
	<circle class="st0" cx="183.6" cy="214.9" r="2.8"/>
	<circle class="st1" cx="183.6" cy="214.9" r="2"/>
	<circle class="st0" cx="184.8" cy="215.3" r="1.7"/>
	<path class="st2" d="M217.8,252.7c0,0,0-32.7,4.8-40.7c4.8-8-3.5-11.5-3.5-11.5s-19.3-15.7-37.5,8.4s3,44.6,3,44.6
		s11.4,12.2,24.5,11.3C209.1,264.9,216.9,265.4,217.8,252.7z"/>
	<path class="st3" d="M221.1,228.8c0,0-36.1-64.2-47.1-1c0,0-0.1,3.8-3.4,3.8c-5.2,0.1-5.2,0.1-5.2,0.1s-1.9-3.1-2.6,0v2.6
		c0,0,1.3,2.6,2.5,0l5.6,0.1c0,0,2.7-0.3,4.2,3c1.6,3.3,12.8,42.2,45.3-0.9c0,0,3.8-3.5,10.3,7.1c0,0,13.9-11.5,1-20.8
		C231.7,222.9,225.9,232.3,221.1,228.8z"/>
	<path class="st4" d="M223.5,206.6"/>
	<g>
		<circle class="st0" cx="183.6" cy="215" r="2.8"/>
		<circle class="st1" cx="183.6" cy="215" r="2"/>
		<ellipse class="st0" cx="184.4" cy="215.4" rx="1.3" ry="1.7"/>
	</g>
	<path class="st2" d="M194.8,234c0,0-2.9,12.5,3.6,9.6c6.4-3,8.9-6.7,8.9-6.7s4.7-3.7-6.5-4.8L194.8,234z"/>
</g>
</svg>
