<?xml version="1.0" encoding="utf-8"?>
<!-- Generator: Adobe Illustrator 22.1.0, SVG Export Plug-In . SVG Version: 6.00 Build 0)  -->
<svg version="1.1" xmlns="http://www.w3.org/2000/svg" xmlns:xlink="http://www.w3.org/1999/xlink" x="0px" y="0px"
	 viewBox="0 0 1024 768" style="enable-background:new 0 0 1024 768;" xml:space="preserve">
<style type="text/css">
	.st0{fill:#F7931E;}
	.st1{fill:#8CC63F;}
	.st2{fill:#0071BC;}
	.st3{fill:#F4777C;stroke:#ED1C24;stroke-width:5;stroke-miterlimit:10;}
	.st4{fill:#ED1C24;}
</style>
<g id="Layer_1">
	<g>
		<g>
			<path class="st0" d="M420.6,102.5c0,0-30.8,1.7-27.1,25.1s-21,14.8-21,14.8v6.2c0,0,23.5,6.2,27.2-21s19.8-19.8,19.8-19.8
				L420.6,102.5z"/>
			<path class="st1" d="M429.9,102.5c0,0-30.8,1.7-27.1,25.1s-21,14.8-21,14.8v6.2c0,0,23.5,6.2,27.2-21s19.8-19.8,19.8-19.8
				L429.9,102.5z"/>
			<path class="st2" d="M437.8,114.6c0,0-28.3-12.4-35.5,10.2c-7.3,22.6-25.4,3.8-25.4,3.8l-2.8,5.5c0,0,18.2,16.1,33.7-6.5
				c15.5-22.6,26.5-8.7,26.5-8.7L437.8,114.6z"/>
		</g>
		<g>
			<path class="st0" d="M661.2,259.1c0,0-19.5-23.9,0.4-37c19.9-13-3.1-25.5-3.1-25.5l4.6-4.1c0,0,20.3,13.2,2.7,34.2
				c-17.6,21-1.4,27.9-1.4,27.9L661.2,259.1z"/>
			<path class="st1" d="M667.4,266c0,0-19.5-23.9,0.4-37c19.9-13-3.1-25.5-3.1-25.5l4.6-4.1c0,0,20.3,13.2,2.7,34.2
				c-17.6,21-1.4,27.9-1.4,27.9L667.4,266z"/>
			<path class="st2" d="M681.7,263.8c0,0-28.2-12.6-16.3-33.2s-14.3-21.4-14.3-21.4l2.2-5.8c0,0,24.1,2.7,17.8,29.3
				c-6.3,26.7,11.3,25.5,11.3,25.5L681.7,263.8z"/>
		</g>
		<g>
			<polygon class="st3" points="426.8,105.4 598.4,44.9 666.3,206.6 465.1,341.2 			"/>
			<polygon class="st4" points="429.1,119.5 654.9,214.2 666.3,206.6 658.1,187 445.1,99 426.2,104.8 			"/>
			<polygon class="st4" points="465.1,341.2 481.3,330.3 603.1,56.1 598.4,44.9 584.4,49.8 461.8,320.6 			"/>
			<polygon points="454,348.6 463.9,354.7 604.6,37.5 598.4,37.5 			"/>
			<polygon points="419.4,107.9 674.9,212.8 677.4,204.1 421.9,96.8 			"/>
		</g>
		<g>
			<path d="M490.3,324c0,0-104.4,50.5-22.2,213.6c0,0,112.9,186.4-42.6,162.8c-81.6-12.3-79.3-59.5-56.2-91.1
				c21-28.6,59-44.5,67.3-10.1l-3.7,0.5c0,0-13.6-44.2-61.8,13.5c0,0-45.8,57.4,42.4,81.4c0,0,154.3,46.3,54.1-151.9
				C467.6,542.7,378.6,358,490.3,324z"/>
			<polygon class="st1" points="435.7,402.3 411.6,390.1 406.3,416.1 433.4,412 460.5,420.8 463.2,399.4 			"/>
			<polygon class="st4" points="443.7,467.5 417.7,459.9 417.3,486.4 443.2,477.5 471.3,481.2 470.2,459.7 			"/>
			<polygon class="st2" points="460.9,529.2 433.9,530.5 442.1,555.7 463.7,538.7 491.5,533.1 483.3,513.1 			"/>
			<polygon class="st0" points="490.9,594.6 463.9,593.2 469.6,619.1 492.7,604.4 521,601.5 514.8,580.8 			"/>
			<polygon class="st1" points="495.3,670.1 480.1,647.7 462.9,667.9 488.6,677.5 508,698.2 520.8,680.8 			"/>
			<polygon class="st4" points="435.4,702.5 447.9,678.5 422,673 425.8,700.1 416.6,727 438,730 			"/>
			<polygon class="st2" points="365.8,670.3 340.8,680.8 357.3,701.6 371.7,678.3 395.8,663.4 381.3,647.5 			"/>
		</g>
	</g>
</g>
<g id="Layer_2">
</g>
</svg>
