<?xml version="1.0" encoding="utf-8"?>
<!-- Generator: Adobe Illustrator 22.1.0, SVG Export Plug-In . SVG Version: 6.00 Build 0)  -->
<svg version="1.1" id="Layer_1" xmlns="http://www.w3.org/2000/svg" xmlns:xlink="http://www.w3.org/1999/xlink" x="0px" y="0px"
	 viewBox="0 0 1024 768" style="enable-background:new 0 0 1024 768;" xml:space="preserve">
<style type="text/css">
	.st0{fill:#F2F2F2;stroke:#999999;stroke-width:3;stroke-miterlimit:10;}
	.st1{fill:#B3B3B3;}
</style>
<path class="st0" d="M317.9,569.1c0,0-300.7-184-100.2-274.1c0,0,3.8-112.9,88.8-109.1c0,0,40.6-92.6,123.1-63.4
	c0,0,83.8-76.1,158.6-5.1c0,0,102.8-29.2,123.1,58.4c0,0,106.6,19,87.6,115.5c0,0,225.9,71.1-99,277.9c0,0,20.3,106.6-119.3,79.9
	L512,682l-73.6-35.5C438.4,646.5,310.3,697.2,317.9,569.1z"/>
<g>
	<path class="st1" d="M512.6,357.1h-2.4c-2.5,0-4.5-2-4.5-4.5V129.4c0-2.5,2-4.5,4.5-4.5h2.4c2.5,0,4.5,2,4.5,4.5v223.2
		C517.1,355.1,515.1,357.1,512.6,357.1z"/>
	<path class="st1" d="M422.6,414.1l1.7-1.7c1.8-1.8,1.8-4.6,0-6.4L266.5,248.2c-1.8-1.8-4.6-1.8-6.4,0l-1.7,1.7
		c-1.8,1.8-1.8,4.6,0,6.4l157.8,157.8C418,415.8,420.8,415.8,422.6,414.1z"/>
	<path class="st1" d="M462.5,374.9l2.2-1c2.2-1,3.2-3.7,2.2-6l-93.5-202.7c-1-2.2-3.7-3.2-6-2.2l-2.2,1c-2.2,1-3.2,3.7-2.2,6
		l93.5,202.7C457.5,374.9,460.2,375.9,462.5,374.9z"/>
	<path class="st1" d="M565.4,374.9l-2.2-1c-2.2-1-3.2-3.7-2.2-6l93.5-202.7c1-2.2,3.7-3.2,6-2.2l2.2,1c2.2,1,3.2,3.7,2.2,6
		l-93.5,202.7C570.3,374.9,567.6,375.9,565.4,374.9z"/>
	<path class="st1" d="M609.2,414.1l-1.7-1.7c-1.8-1.8-1.8-4.6,0-6.4l157.8-157.8c1.8-1.8,4.6-1.8,6.4,0l1.7,1.7
		c1.8,1.8,1.8,4.6,0,6.4L615.5,414.1C613.8,415.8,610.9,415.8,609.2,414.1z"/>
	<path class="st1" d="M374.5,451.3l-1,2.2c-1,2.2-3.7,3.2-6,2.2l-173.9-80.2c-2.2-1-3.2-3.7-2.2-6l1-2.2c1-2.2,3.7-3.2,6-2.2
		l173.9,80.2C374.6,446.4,375.6,449.1,374.5,451.3z"/>
	<path class="st1" d="M657.1,451.3l1,2.2c1,2.2,3.7,3.2,6,2.2L838,375.5c2.2-1,3.2-3.7,2.2-6l-1-2.2c-1-2.2-3.7-3.2-6-2.2
		l-173.9,80.2C657.1,446.4,656.1,449.1,657.1,451.3z"/>
</g>
</svg>
