<?xml version="1.0" encoding="utf-8"?>
<!-- Generator: Adobe Illustrator 22.1.0, SVG Export Plug-In . SVG Version: 6.00 Build 0)  -->
<svg version="1.1" xmlns="http://www.w3.org/2000/svg" xmlns:xlink="http://www.w3.org/1999/xlink" x="0px" y="0px"
	 viewBox="0 0 1024 768" style="enable-background:new 0 0 1024 768;" xml:space="preserve">
<style type="text/css">
	.st0{display:none;}
	.st1{fill:#F9D03F;}
	.st2{fill:#FCEE21;}
</style>
<g id="Layer_1" class="st0">
</g>
<g id="Layer_2">
	<g>
		<path class="st1" d="M269.5,121.9c0,0,75.9,138.2-74.5,112.4c0,0,119.2,107-29.8,135.5c0,0,146.3,47.4,31.2,139.5
			c0,0,142.2-16.3,71.8,111.1c0,0,121.9-86.7,117.8,73.1c0,0,94.8-123.3,134.1,33.9c0,0,40.6-155.8,135.5-24.4
			c0,0-13.5-173.4,116.5-79.9c0,0-82.6-143.6,75.9-119.2c0,0-123.3-75.9,21.7-134.1c0,0-155.8-31.2-23-136.8
			c0,0-144.9,36.6-77.2-111.1c0,0-139.5,79.9-109.7-74.5c0,0-73.1,142.2-139.5,0c0,0-43.3,162.5-132.7,0
			C387.4,47.4,407.7,226.2,269.5,121.9z"/>
		<circle class="st2" cx="519.6" cy="377.6" r="228.6"/>
	</g>
</g>
<g id="Layer_3" class="st0">
</g>
<g id="Layer_4" class="st0">
</g>
</svg>
